<?xml version="1.0" standalone="no"?>
<!DOCTYPE svg PUBLIC "-//W3C//DTD SVG 20010904//EN"
 "http://www.w3.org/TR/2001/REC-SVG-20010904/DTD/svg10.dtd">
<svg version="1.0" xmlns="http://www.w3.org/2000/svg"
 width="1280.000000pt" height="1280.000000pt" viewBox="0 0 1280.000000 1280.000000"
 preserveAspectRatio="xMidYMid meet">
<metadata>
Created by potrace 1.15, written by Peter Selinger 2001-2017
</metadata>
<g transform="translate(0.000000,1280.000000) scale(0.100000,-0.100000)"
fill="#000000" stroke="none">
<path d="M6382 12733 c-24 -128 -141 -688 -182 -873 -165 -746 -304 -1100
-430 -1100 -137 0 -245 192 -440 780 -111 333 -154 446 -217 560 -65 120 -137
188 -182 172 -53 -18 -105 -100 -139 -217 -71 -244 -113 -568 -113 -890 0
-279 25 -475 99 -777 22 -87 38 -158 37 -158 -2 0 -42 63 -90 140 -183 298
-301 447 -516 655 -157 152 -302 270 -484 394 -181 123 -282 173 -366 179 -62
4 -67 3 -87 -23 -65 -82 3 -293 252 -788 256 -509 320 -713 261 -828 -26 -48
-71 -64 -149 -51 -210 34 -581 244 -1461 823 -347 229 -314 209 -294 179 540
-823 622 -950 754 -1180 216 -375 295 -584 251 -668 -36 -69 -119 -84 -258
-48 -153 40 -291 99 -615 262 -495 249 -706 317 -788 252 -26 -20 -27 -25 -23
-87 6 -84 56 -185 179 -366 124 -182 242 -327 394 -484 208 -215 357 -333 655
-516 77 -48 140 -88 140 -90 0 -1 -51 11 -112 26 -369 93 -635 122 -982 107
-336 -15 -707 -82 -846 -153 -46 -23 -93 -67 -102 -96 -16 -45 52 -117 172
-182 114 -63 227 -106 560 -217 588 -195 780 -303 780 -440 0 -126 -351 -264
-1100 -430 -194 -43 -703 -149 -852 -178 -49 -9 -88 -19 -88 -22 0 -3 39 -13
88 -22 640 -122 1272 -269 1558 -363 261 -85 394 -168 394 -245 0 -137 -192
-245 -780 -440 -333 -111 -446 -154 -560 -217 -120 -65 -188 -137 -172 -182 9
-29 56 -73 102 -96 139 -71 510 -138 846 -153 347 -15 613 14 982 107 61 15
112 27 112 26 0 -2 -63 -42 -140 -90 -298 -183 -447 -301 -655 -516 -152 -157
-270 -302 -394 -484 -123 -181 -173 -282 -179 -366 -4 -62 -3 -67 23 -87 82
-65 293 3 788 252 508 255 713 320 827 261 115 -59 58 -260 -205 -715 -132
-230 -214 -357 -754 -1180 -20 -30 -53 -50 294 179 880 579 1251 789 1461 823
55 9 71 9 99 -5 72 -34 88 -118 51 -259 -40 -153 -99 -291 -262 -615 -249
-495 -317 -706 -252 -788 20 -26 25 -27 87 -23 84 6 185 56 366 179 182 124
327 242 484 394 215 208 333 357 516 655 48 77 88 140 90 140 1 0 -15 -71 -37
-158 -74 -302 -99 -498 -99 -777 0 -322 42 -646 113 -890 34 -117 86 -199 139
-217 45 -16 117 52 182 172 63 114 106 227 217 560 195 588 303 780 440 780
126 0 265 -354 430 -1100 41 -185 158 -745 182 -872 7 -38 15 -68 18 -68 3 0
11 30 18 67 24 128 141 688 182 873 165 746 304 1100 430 1100 137 0 245 -192
440 -780 111 -333 154 -446 217 -560 65 -120 137 -188 182 -172 53 18 105 100
139 217 71 244 113 568 113 890 0 279 -25 475 -99 778 -22 86 -38 157 -37 157
2 0 42 -63 90 -140 183 -298 301 -447 516 -655 157 -152 302 -270 484 -394
181 -123 282 -173 366 -179 62 -4 67 -3 87 23 65 82 -3 293 -252 788 -163 324
-222 462 -262 615 -37 141 -21 225 51 259 30 14 43 15 102 4 218 -40 579 -243
1458 -822 347 -229 314 -209 294 -179 -540 823 -622 950 -754 1180 -216 375
-295 584 -251 668 36 69 119 84 258 48 153 -40 291 -99 615 -262 495 -249 706
-317 788 -252 26 20 27 25 23 87 -6 84 -56 185 -179 366 -124 182 -242 327
-394 484 -208 215 -357 333 -655 516 -77 48 -140 88 -140 90 0 1 51 -11 113
-26 368 -93 634 -122 981 -107 336 15 707 82 846 153 46 23 93 67 102 96 16
45 -52 117 -172 182 -114 63 -227 106 -560 217 -588 195 -780 303 -780 440 0
126 351 264 1100 430 194 43 703 149 853 178 48 9 87 19 87 22 0 3 -39 13 -87
22 -641 122 -1273 269 -1559 363 -261 85 -394 168 -394 245 0 137 192 245 780
440 333 111 446 154 560 217 120 65 188 137 172 182 -9 29 -56 73 -102 96
-139 71 -510 138 -846 153 -347 15 -613 -14 -981 -107 -62 -15 -113 -27 -113
-26 0 2 63 42 140 90 298 183 447 301 655 516 152 157 270 302 394 484 123
181 173 282 179 366 4 62 3 67 -23 87 -82 65 -293 -3 -788 -252 -508 -255
-713 -320 -827 -261 -115 59 -58 260 205 715 132 230 214 357 754 1180 20 30
53 50 -294 -179 -880 -579 -1251 -789 -1461 -823 -55 -9 -71 -9 -99 5 -72 34
-88 118 -51 259 40 153 99 291 262 615 249 495 317 706 252 788 -20 26 -25 27
-87 23 -84 -6 -185 -56 -366 -179 -182 -124 -327 -242 -484 -394 -215 -208
-333 -357 -516 -655 -48 -77 -88 -140 -90 -140 -1 0 15 71 37 158 74 302 99
498 99 777 0 322 -42 646 -113 890 -34 117 -86 199 -139 217 -45 16 -117 -52
-182 -172 -63 -114 -106 -227 -217 -560 -195 -588 -303 -780 -440 -780 -126 0
-265 354 -430 1100 -41 185 -158 745 -182 873 -7 37 -15 67 -18 67 -3 0 -11
-30 -18 -67z"/>
</g>
</svg>
